<svg xmlns="http://www.w3.org/2000/svg" xmlns:xlink="http://www.w3.org/1999/xlink" width="500" zoomAndPan="magnify" viewBox="0 0 375 374.999991" height="500" preserveAspectRatio="xMidYMid meet" version="1.0"><defs><clipPath id="f3bbbe7243"><path d="M 125.753906 110.003906 L 200.753906 110.003906 L 200.753906 205.253906 L 125.753906 205.253906 Z M 125.753906 110.003906 " clip-rule="nonzero"/></clipPath></defs><path fill="#000000" d="M 231.722656 161.789062 C 230.863281 178.796875 223.542969 195.375 209.84375 207.703125 C 196.1875 220.03125 178.921875 225.621094 161.855469 224.769531 C 144.789062 223.894531 128.171875 216.605469 115.800781 202.976562 C 103.457031 189.324219 97.875 172.113281 98.710938 155.066406 C 99.582031 138.066406 106.894531 121.496094 120.566406 109.175781 C 134.242188 96.855469 151.511719 91.257812 168.570312 92.121094 C 185.648438 92.972656 202.25 100.261719 214.609375 113.902344 C 226.972656 127.53125 232.554688 144.765625 231.722656 161.789062 Z M 298.777344 282.734375 L 238.304688 215.988281 C 250.582031 200.515625 257.351562 181.957031 258.3125 163.144531 C 259.546875 139.414062 251.601562 115.101562 234.382812 96.082031 C 217.148438 77.070312 193.679688 66.765625 169.910156 65.578125 C 146.125 64.359375 121.746094 72.265625 102.71875 89.453125 C 83.625 106.65625 73.3125 130.027344 72.121094 153.734375 C 70.875 177.457031 78.816406 201.769531 96.039062 220.78125 C 113.277344 239.796875 136.738281 250.113281 160.519531 251.300781 C 179.378906 252.261719 198.59375 247.390625 215.269531 236.765625 L 275.71875 303.496094 C 281.480469 309.859375 291.304688 310.339844 297.664062 304.605469 C 304.035156 298.871094 304.523438 289.074219 298.777344 282.734375 " fill-opacity="1" fill-rule="nonzero"/><g clip-path="url(#f3bbbe7243)"><path fill="#100f0d" d="M 129.019531 201.949219 L 129.015625 128.800781 L 142.824219 128.800781 C 143.726562 128.800781 144.457031 128.066406 144.457031 127.160156 L 144.457031 113.3125 L 197.472656 113.3125 L 197.472656 201.949219 Z M 141.1875 115.632812 L 141.1875 125.519531 L 131.328125 125.519531 L 136.257812 120.578125 Z M 200.742188 111.671875 C 200.742188 110.765625 200.011719 110.03125 199.105469 110.03125 L 142.824219 110.03125 C 142.71875 110.03125 142.613281 110.042969 142.511719 110.0625 C 142.507812 110.0625 142.503906 110.0625 142.5 110.0625 C 142.363281 110.089844 142.230469 110.140625 142.105469 110.203125 C 142.074219 110.21875 142.042969 110.234375 142.011719 110.253906 C 141.886719 110.324219 141.769531 110.40625 141.664062 110.511719 L 126.222656 126 C 126.121094 126.105469 126.039062 126.222656 125.96875 126.347656 C 125.949219 126.378906 125.933594 126.410156 125.917969 126.441406 C 125.855469 126.570312 125.804688 126.699219 125.777344 126.839844 C 125.777344 126.84375 125.777344 126.847656 125.777344 126.851562 C 125.757812 126.953125 125.746094 127.054688 125.746094 127.160156 L 125.746094 203.589844 C 125.746094 204.496094 126.476562 205.230469 127.382812 205.230469 L 199.109375 205.230469 C 199.542969 205.230469 199.957031 205.058594 200.265625 204.75 C 200.570312 204.441406 200.742188 204.027344 200.742188 203.589844 L 200.742188 111.671875 " fill-opacity="1" fill-rule="nonzero"/></g><path fill="#100f0d" d="M 187.035156 137.394531 L 139.453125 137.394531 C 138.550781 137.394531 137.820312 138.128906 137.820312 139.035156 C 137.820312 139.941406 138.550781 140.675781 139.453125 140.675781 L 187.035156 140.675781 C 187.9375 140.675781 188.671875 139.941406 188.671875 139.035156 C 188.671875 138.128906 187.9375 137.394531 187.035156 137.394531 " fill-opacity="1" fill-rule="nonzero"/><path fill="#100f0d" d="M 187.035156 150.199219 L 139.453125 150.199219 C 138.550781 150.199219 137.820312 150.933594 137.820312 151.84375 C 137.820312 152.75 138.550781 153.484375 139.453125 153.484375 L 187.035156 153.484375 C 187.9375 153.484375 188.671875 152.75 188.671875 151.84375 C 188.671875 150.933594 187.9375 150.199219 187.035156 150.199219 " fill-opacity="1" fill-rule="nonzero"/><path fill="#100f0d" d="M 187.035156 163.007812 L 139.453125 163.007812 C 138.550781 163.007812 137.820312 163.742188 137.820312 164.648438 C 137.820312 165.558594 138.550781 166.292969 139.453125 166.292969 L 187.035156 166.292969 C 187.9375 166.292969 188.671875 165.558594 188.671875 164.648438 C 188.671875 163.742188 187.9375 163.007812 187.035156 163.007812 " fill-opacity="1" fill-rule="nonzero"/><path fill="#100f0d" d="M 187.035156 175.816406 L 139.453125 175.816406 C 138.550781 175.816406 137.820312 176.550781 137.820312 177.457031 C 137.820312 178.363281 138.550781 179.097656 139.453125 179.097656 L 187.035156 179.097656 C 187.9375 179.097656 188.671875 178.363281 188.671875 177.457031 C 188.671875 176.550781 187.9375 175.816406 187.035156 175.816406 " fill-opacity="1" fill-rule="nonzero"/></svg>